<svg xmlns="http://www.w3.org/2000/svg" xmlns:xlink="http://www.w3.org/1999/xlink" width="64" height="18" viewBox="0 0 64 18">
    <defs>
        <path id="szku5f0b3a" d="M0 0L17.603 0 17.603 14.497 0 14.497z"/>
        <path id="d3tpmaue0c" d="M0 0L10.185 0 10.185 11.445 0 11.445z"/>
        <path id="ew9d0kir0e" d="M0 0L9.637 0 9.637 15.309 0 15.309z"/>
    </defs>
    <g fill="none" fill-rule="evenodd">
        <g>
            <g>
                <g>
                    <g>
                        <g>
                            <g transform="translate(-16.000000, -2013.000000) translate(-0.000000, 1516.000000) translate(0.000000, 484.000000) translate(16.000000, 13.000000) translate(0.000000, 1.000000) translate(0.000000, 1.503489)">
                                <mask id="4x523huskb" fill="#fff">
                                    <use xlink:href="#szku5f0b3a"/>
                                </mask>
                                <path fill="#0064FF" d="M17.551 6.408C17.098 2.742 13.82.035 10.009 0h-.085c-.294 0-.59.016-.89.05-1.081.118-2.083.444-2.968.93l-.058.032-.05.029C1.565 3.51 0 9.209 0 12.678l3.536-1.927c1.246 2.241 3.637 3.718 6.303 3.746h.085c.294-.001.59-.017.89-.05 4.212-.464 7.228-4.063 6.737-8.039" mask="url(#4x523huskb)"/>
                            </g>
                            <g transform="translate(-16.000000, -2013.000000) translate(-0.000000, 1516.000000) translate(0.000000, 484.000000) translate(16.000000, 13.000000) translate(0.000000, 1.000000) translate(53.815029, 3.864377)">
                                <mask id="jnlnifbvod" fill="#fff">
                                    <use xlink:href="#d3tpmaue0c"/>
                                </mask>
                                <path fill="#0064FF" d="M2.637 7.677c.519.972 1.445 1.477 2.67 1.474C6.512 9.148 7.155 8.6 7.153 7.95c-.002-.791-1.25-.97-2.734-1.251C2.46 6.318.287 5.755.28 3.442.275 1.595 2.163-.013 5.023 0c2.273-.006 3.698.74 4.754 2.012l-2.465 1.35c-.475-.728-1.207-1.153-2.282-1.15-1.162.003-1.72.45-1.718 1.06.002.69.949.87 2.649 1.21 1.936.36 4.217.984 4.224 3.338.005 1.705-1.603 3.636-4.979 3.625C2.661 11.45.978 10.623.004 9.12L0 9.113l2.637-1.436z" mask="url(#jnlnifbvod)"/>
                            </g>
                            <path fill="#0064FF" d="M45.842 11.541c.52.973 1.445 1.478 2.67 1.474 1.205-.003 1.849-.552 1.847-1.201-.002-.792-1.25-.971-2.735-1.252-1.958-.38-4.131-.943-4.138-3.256-.005-1.847 1.883-3.455 4.743-3.442 2.273-.005 3.697.741 4.753 2.012l-2.464 1.351c-.475-.73-1.208-1.154-2.283-1.15-1.161.002-1.719.45-1.717 1.059.002.69.948.87 2.648 1.21 1.936.361 4.218.984 4.225 3.338.004 1.705-1.603 3.637-4.98 3.625-2.544.006-4.227-.822-5.201-2.325l-.004-.006 2.636-1.437zM36.482 12.638c-1.786 0-3.234-1.366-3.234-3.051 0-1.686 1.448-3.052 3.234-3.052 1.785 0 3.233 1.366 3.233 3.052 0 1.685-1.448 3.051-3.233 3.051m0-8.774c-3.349 0-6.063 2.562-6.063 5.723 0 3.16 2.714 5.722 6.063 5.722 3.348 0 6.062-2.562 6.062-5.722 0-3.16-2.714-5.723-6.062-5.723" transform="translate(-16.000000, -2013.000000) translate(-0.000000, 1516.000000) translate(0.000000, 484.000000) translate(16.000000, 13.000000) translate(0.000000, 1.000000)"/>
                            <g transform="translate(-16.000000, -2013.000000) translate(-0.000000, 1516.000000) translate(0.000000, 484.000000) translate(16.000000, 13.000000) translate(0.000000, 1.000000) translate(20.610482, 0.000000)">
                                <mask id="o90vzi394f" fill="#fff">
                                    <use xlink:href="#ew9d0kir0e"/>
                                </mask>
                                <path fill="#0064FF" d="M8.24 11.885c-.374.28-1.155.628-1.547.628-.76 0-1.28-.41-1.28-1.578V6.587H9.02V4.088H5.413V0L2.406 1.639v2.45H0v2.498h2.406v4.602c0 3.013 1.488 4.12 3.94 4.12 1.085 0 2.533-.606 3.291-1.139L8.24 11.885z" mask="url(#o90vzi394f)"/>
                            </g>
                        </g>
                    </g>
                </g>
            </g>
        </g>
    </g>
</svg>
